<svg xmlns="http://www.w3.org/2000/svg" viewBox="0 0 64 64">
  <defs>
    <radialGradient id="shade" cx="28%" cy="22%" r="72%">
      <stop offset="0" stop-color="#ffffff"/>
      <stop offset="0.62" stop-color="#f7f8f5"/>
      <stop offset="1" stop-color="#d7ddd6"/>
    </radialGradient>
  </defs>
  <circle cx="32" cy="32" r="29" fill="url(#shade)" stroke="#111827" stroke-width="3"/>
  <path fill="#111827" d="m32 18 10 7-4 12H26l-4-12 10-7Z"/>
  <path fill="#111827" d="M13 27c3-7 8-12 14-14l-5 11-10 6c0-1 0-2 1-3Z"/>
  <path fill="#111827" d="M51 27c-3-7-8-12-14-14l5 11 10 6c0-1 0-2-1-3Z"/>
  <path fill="#111827" d="M18 50c-5-5-8-11-8-18l11 9 2 13c-2-1-4-2-5-4Z"/>
  <path fill="#111827" d="M46 50c5-5 8-11 8-18l-11 9-2 13c2-1 4-2 5-4Z"/>
  <path fill="#111827" d="M25 55h14l-7 4-7-4Z"/>
  <path fill="none" stroke="#111827" stroke-linecap="round" stroke-linejoin="round" stroke-width="2.4" d="m22 25-10 5m30-5 10 5M26 37l-5 4m17-4 5 4m-17-4-3 17m15-17 3 17M27 13l5 5 5-5"/>
</svg>
