<svg xmlns="http://www.w3.org/2000/svg" viewBox="0 0 64 64">
  <defs>
    <radialGradient id="ballShade" cx="30%" cy="24%" r="70%">
      <stop offset="0" stop-color="#fff"/>
      <stop offset="0.58" stop-color="#f7f7f2"/>
      <stop offset="1" stop-color="#d8ddd6"/>
    </radialGradient>
    <linearGradient id="grass" x1="14" x2="50" y1="54" y2="54" gradientUnits="userSpaceOnUse">
      <stop offset="0" stop-color="#31d79a"/>
      <stop offset="1" stop-color="#ffd966"/>
    </linearGradient>
  </defs>
  <circle cx="32" cy="32" r="29" fill="#0a1918"/>
  <circle cx="32" cy="31" r="24" fill="url(#ballShade)" stroke="#fff" stroke-width="2"/>
  <path fill="#101820" d="m32 17 9 7-4 11H27l-4-11 9-7Z"/>
  <path fill="#101820" d="m16 29 8-5 4 11-7 7-7-4a22 22 0 0 1 2-9Z"/>
  <path fill="#101820" d="m48 29-8-5-4 11 7 7 7-4a22 22 0 0 0-2-9Z"/>
  <path fill="#101820" d="m24 47 3-12h10l3 12a22 22 0 0 1-16 0Z"/>
  <path fill="none" stroke="#101820" stroke-linecap="round" stroke-linejoin="round" stroke-width="2" d="m23 24-4-7m22 7 4-7M21 42l-6 5m28-5 6 5M27 35l-6 7m16-7 6 7"/>
  <path fill="url(#grass)" d="M14 54c6 3 30 3 36 0-3 5-9 8-18 8s-15-3-18-8Z"/>
</svg>
